<?xml version="1.0" standalone="no"?>
<!DOCTYPE svg PUBLIC "-//W3C//DTD SVG 20010904//EN"
 "http://www.w3.org/TR/2001/REC-SVG-20010904/DTD/svg10.dtd">
<svg version="1.0" xmlns="http://www.w3.org/2000/svg"
 width="1138.000000pt" height="1280.000000pt" viewBox="0 0 1138.000000 1280.000000"
 preserveAspectRatio="xMidYMid meet">
<metadata>
Created by potrace 1.15, written by Peter Selinger 2001-2017
</metadata>
<g transform="translate(0.000000,1280.000000) scale(0.100000,-0.100000)"
fill="#000000" stroke="none">
<path d="M5465 12794 c-207 -20 -279 -29 -402 -49 -1075 -180 -2027 -853
-2565 -1812 -198 -355 -332 -727 -407 -1138 -55 -304 -61 -447 -61 -1582 l0
-1003 -189 0 c-143 0 -191 -3 -199 -13 -8 -9 -11 -960 -12 -3318 0 -1817 -1
-3309 0 -3316 0 -6 7 -19 16 -27 14 -14 136 -16 1172 -18 636 -1 1063 -5 947
-8 -115 -3 -203 -8 -195 -11 27 -12 293 -56 394 -65 32 -3 81 -9 110 -14 28
-4 54 -6 59 -3 4 2 31 0 60 -6 28 -6 88 -12 132 -15 44 -3 148 -10 230 -15
323 -22 494 -26 1135 -26 641 0 812 4 1135 26 83 5 186 12 230 15 44 3 104 9
132 15 29 6 56 8 60 6 5 -3 31 -1 59 3 29 5 78 11 110 14 101 9 367 53 394 65
8 3 -79 8 -195 11 -115 3 311 7 947 8 1036 2 1158 4 1172 18 9 8 16 21 16 27
1 7 0 1499 0 3316 0 2369 -4 3308 -12 3318 -8 10 -56 13 -199 13 l-189 0 0
1003 c0 1135 -6 1278 -61 1582 -133 725 -463 1369 -969 1889 -605 622 -1330
980 -2210 1091 -118 15 -554 28 -645 19z m645 -1043 c1039 -177 1847 -903
2128 -1911 35 -123 67 -303 82 -449 6 -63 10 -502 10 -1142 l0 -1039 -2640 0
-2640 0 0 1039 c0 638 4 1079 10 1142 62 621 324 1180 758 1616 395 397 898
654 1452 742 177 29 187 29 465 26 199 -2 275 -7 375 -24z"/>
</g>
</svg>
