<?xml version="1.0" encoding="utf-8"?>
<!-- Svg Vector Icons : http://www.onlinewebfonts.com/icon -->
<!DOCTYPE svg PUBLIC "-//W3C//DTD SVG 1.1//EN" "http://www.w3.org/Graphics/SVG/1.1/DTD/svg11.dtd">
<svg version="1.1" xmlns="http://www.w3.org/2000/svg" xmlns:xlink="http://www.w3.org/1999/xlink" x="0px" y="0px" viewBox="0 0 1000 1000" enable-background="new 0 0 1000 1000" xml:space="preserve">
<metadata> Svg Vector Icons : http://www.onlinewebfonts.com/icon </metadata>
<g><path d="M819.1,990H180.9c-47.3,0-85.8-38.5-85.8-85.8V521.3c0-47.1,38.1-85.4,85.1-85.8V329.8C180.2,153.5,323.7,10,500,10c176.3,0,319.8,143.5,319.8,319.8v105.6c47,0.4,85.1,38.8,85.1,85.8v382.9C904.9,951.5,866.4,990,819.1,990z M180.9,479.5c-23.1,0-41.8,18.8-41.8,41.8v382.9c0,23,18.8,41.8,41.8,41.8h638.2c23.1,0,41.8-18.8,41.8-41.8V521.3c0-23-18.7-41.8-41.8-41.8h-43.3V329.8C775.8,177.7,652.1,54,500,54c-152.1,0-275.8,123.7-275.8,275.8v149.6H180.9z M692.2,479.5H307.8V329.8c0-106,86.2-192.2,192.2-192.2c106,0,192.2,86.2,192.2,192.2V479.5z M351.8,435.4h296.3V329.8c0-81.7-66.5-148.2-148.2-148.2c-81.7,0-148.2,66.5-148.2,148.2V435.4z"/></g>
</svg>